<svg height="496pt" viewBox="0 -40 496.448 496" width="496pt" xmlns="http://www.w3.org/2000/svg" xmlns:xlink="http://www.w3.org/1999/xlink"><linearGradient id="a" gradientTransform="matrix(8 0 0 -8 -7.776 464.224)" gradientUnits="userSpaceOnUse" x1="32" x2="32" y1="6" y2="58"><stop offset="0" stop-color="#9f2fff"/><stop offset="1" stop-color="#0bb1d3"/></linearGradient><path d="m256.761719 106.367188c-5.355469-1.597657-10.859375-2.160157-16.3125-1.960938v-.183594h-86.707031l-153.742188-51.09375.464844 216.046875 44.136718 22.0625 26.132813-63.886719 38.175781 15.273438 9.898438-24.738281 14.328125 14.335937-13.375 13.378906c-4.648438 4.644532-7.3125 11.078126-7.3125 17.65625 0 13.460938 10.734375 24.40625 24.085937 24.878907.464844 13.046875 10.953125 23.535156 24 24 .464844 13.046875 10.953125 23.535156 24 24 .480469 13.351562 11.417969 24.085937 24.878906 24.085937 6.578126 0 13.011719-2.664062 17.65625-7.3125l13.378907-13.375 5.375 5.375c4.648437 4.648438 11.078125 7.3125 17.65625 7.3125 13.464843 0 24.40625-10.734375 24.878906-24.085937 13.046875-.464844 23.535156-10.953125 24-24 13.046875-.464844 23.535156-10.953125 24-24 13.351563-.472657 24.089844-11.417969 24.089844-24.878907 0-1.136718-.183594-2.257812-.335938-3.386718l11.480469-11.480469 9.277344 18.5625 50.25-25.128906 30.367187 57.976562 34.960938-23.304687v-206.761719l-168.351563 66.035156zm-220.457031 162.839843-19.863282-9.933593-.402344-183.953126 87.664063 29.136719zm63.6875-47.382812-23.214844-9.28125 42.144531-103.03125 22.933594 7.625zm28.457031 41.433593c0-2.363281.949219-4.671874 2.621093-6.347656l14.066407-14.0625c1.671875-1.671875 3.984375-2.625 6.34375-2.625 4.945312 0 8.96875 4.023438 8.96875 8.96875 0 2.359375-.953125 4.671875-2.625 6.34375l-14.0625 14.066406c-1.671875 1.671876-3.984375 2.621094-6.347657 2.621094-4.933593 0-8.964843-4.023437-8.964843-8.964844zm24 24c0-2.363281.949219-4.671874 2.621093-6.347656l14.066407-14.0625c1.671875-1.671875 3.984375-2.625 6.34375-2.625 4.945312 0 8.96875 4.023438 8.96875 8.96875 0 2.359375-.953125 4.671875-2.625 6.34375l-14.0625 14.066406c-1.671875 1.671876-3.984375 2.621094-6.347657 2.621094-4.933593 0-8.964843-4.023437-8.964843-8.964844zm24 24c0-2.363281.949219-4.671874 2.621093-6.347656l14.066407-14.0625c1.671875-1.671875 3.984375-2.625 6.34375-2.625 4.945312 0 8.96875 4.023438 8.96875 8.96875 0 2.359375-.953125 4.671875-2.625 6.34375l-14.0625 14.066406c-1.671875 1.671876-3.984375 2.621094-6.347657 2.621094-4.933593 0-8.964843-4.023437-8.964843-8.964844zm53.375 16.277344-14.0625 14.066406c-1.671875 1.671876-3.984375 2.621094-6.347657 2.621094-4.941406 0-8.964843-4.023437-8.964843-8.964844 0-2.363281.949219-4.671874 2.621093-6.347656l14.066407-14.0625c1.671875-1.671875 3.984375-2.625 6.34375-2.625 4.945312 0 8.96875 4.023438 8.96875 8.96875 0 2.359375-.953125 4.671875-2.625 6.34375zm105.65625-63.3125c-2.359375 0-4.671875-.949218-6.34375-2.621094l-67.03125-67.035156-11.3125 11.3125 67.03125 67.03125c1.671875 1.675782 2.625 3.984375 2.625 6.347656 0 4.941407-4.023438 8.964844-8.96875 8.964844-2.359375 0-4.671875-.949218-6.34375-2.621094l-67.03125-67.035156-11.3125 11.3125 67.03125 67.03125c1.671875 1.675782 2.625 3.984375 2.625 6.347656 0 4.941407-4.023438 8.964844-8.96875 8.964844-2.359375 0-4.671875-.949218-6.34375-2.621094l-67.03125-67.035156-11.3125 11.3125 67.03125 67.03125c1.671875 1.675782 2.625 3.984375 2.625 6.347656 0 4.941407-4.023438 8.964844-8.96875 8.964844-2.359375 0-4.671875-.949218-6.34375-2.621094l-9.023438-9.027343c.160157-1.117188.335938-2.238281.335938-3.382813 0-13.464844-10.738281-24.40625-24.089844-24.878906-.464844-13.046875-10.953125-23.535156-24-24-.464844-13.046875-10.953125-23.535156-24-24-.472656-13.351562-11.414063-24.089844-24.878906-24.089844-1.136719 0-2.257813.183594-3.382813.335938l-22.839844-22.839844 32.605469-81.496094h47.273438l-29.375 29.378906c-4.722657 4.710938-7.3125 10.984376-7.3125 17.65625 0 13.765626 11.199219 24.964844 24.964843 24.964844 6.578126 0 13.011719-2.664062 17.65625-7.3125l21.195313-21.199218c4.335937-4.320313 11.972656-4.488282 16.488281-.351563l18.703125 17.144531c6.214844 5.695313 13.117188 10.433594 20.511719 14.144532l53.855469 54.261718c1.671875 1.675782 2.625 3.984375 2.625 6.347656 0 4.941407-4.023438 8.964844-8.96875 8.964844zm16.96875-27.3125-32.882813-33.132812c2.9375.285156 5.898438.453125 8.882813.453125v-16c-18.625 0-36.449219-6.933594-50.175781-19.519531l-18.707032-17.136719c-10.558594-9.695313-28.46875-9.308594-38.605468.839843l-21.191407 21.195313c-1.679687 1.65625-3.992187 2.613281-6.355469 2.613281-4.941406 0-8.964843-4.023437-8.964843-8.964844 0-2.402343.925781-4.648437 2.621093-6.347656l30.496094-30.496094c8.960938-8.957031 22.417969-12.367187 34.59375-8.71875l70.671875 21.199219 41.207031 82.425781zm128-151.710937v174.746093l-13.042969 8.695313-77.484375-147.9375zm-56.746094 134.457031-35.664063 17.832031-48.503906-97.015625 35.425782-13.898437zm-316.671875 118.679688 11.3125 11.3125-11.3125 11.3125-11.3125-11.3125zm41.394531 33.976562-8.890625 13.304688-13.296875-8.890626 8.890625-13.300781zm33.933594 16.359375-6.128906 14.785156-14.78125-6.128906 6.125-14.785156zm33.359375 25.113281-15.6875-3.128906 3.121094-15.6875 15.6875 3.128906zm154.9375-374.058594-8.886719 13.304688-13.296875-8.886719 8.886719-13.304687zm-35.214844-20.605468-6.128906 14.78125-14.785156-6.125 6.128906-14.785156zm-38.570312-13.34375-3.117188 15.6875-15.691406-3.121094 3.121094-15.6875zm47.578125 58.445312h40v-40h16v56h-56zm-280 240h48v16h-32v32h-16zm184-288c-48.601563 0-94.960938 18.191406-130.554688 51.234375l-10.886719-11.730469c38.558594-35.789062 88.800782-55.503906 141.441407-55.503906h8v16zm0 400h-8v-16h8c67.503906 0 128.824219-34.453125 164.03125-92.167968l13.65625 8.328124c-38.136719 62.519532-104.550781 99.839844-177.6875 99.839844zm0 0" fill="url(#a)"/></svg>