<?xml version="1.0" encoding="iso-8859-1"?>
<!-- Generator: Adobe Illustrator 21.0.0, SVG Export Plug-In . SVG Version: 6.00 Build 0)  -->
<svg xmlns="http://www.w3.org/2000/svg" xmlns:xlink="http://www.w3.org/1999/xlink" version="1.1" id="Capa_1" x="0px" y="0px" viewBox="0 0 512 512" style="enable-background:new 0 0 512 512;" xml:space="preserve" width="512" height="512">
<g>
	<path style="fill:#EDF5FF;" d="M482,76v30c0,124.2-101.8,225-226,225S30,230.2,30,106V76c0-8.401,6.599-15,15-15h422   C475.401,61,482,67.599,482,76z"/>
	<path style="fill:#D7E9FF;" d="M482,76v30c0,124.2-101.8,225-226,225V61h211C475.401,61,482,67.599,482,76z"/>
	<path style="fill:#596C76;" d="M331,76v120H181V76c0-8.401,6.599-15,15-15h120C324.401,61,331,67.599,331,76z"/>
	<path style="fill:#3B4A51;" d="M331,76v120h-75V61h60C324.401,61,331,67.599,331,76z"/>
	<path style="fill:#9DC1FF;" d="M256,121c-41.4,0-75,33.6-75,75s33.6,75,75,75s75-33.6,75-75S297.4,121,256,121z"/>
	<path style="fill:#6396ED;" d="M331,196c0,41.4-33.6,75-75,75V121C297.4,121,331,154.6,331,196z"/>
	<path style="fill:#596C76;" d="M301,196c0,24.899-20.099,45-45,45s-45-20.101-45-45c0-24.901,20.099-45,45-45S301,171.099,301,196z   "/>
	<path style="fill:#3B4A51;" d="M301,196c0,24.899-20.099,45-45,45v-90C280.901,151,301,171.099,301,196z"/>
	<path style="fill:#8EDB5A;" d="M372.7,463.7C341.499,494.9,300.099,512,256,512s-85.499-17.1-116.7-48.3c-5.7-6-5.7-15.3,0-21.301   c6-6,15.3-6,21.301,0C186.099,467.899,220,482,256,482s69.901-14.101,95.4-39.6c6-6,15.3-6,21.301,0   C378.401,448.4,378.401,457.7,372.7,463.7z"/>
	<path style="fill:#8EDB5A;" d="M330.099,421.099C310.3,441.2,283.9,452,256,452s-54.3-10.8-74.099-30.901c-6-5.7-6-15.3,0-21   c5.698-5.999,15.298-5.999,20.999,0C217,414.2,236.499,421.399,256,421.399s39-7.2,53.101-21.301c5.7-5.999,15.3-5.999,20.999,0   C336.099,405.799,336.099,415.399,330.099,421.099z"/>
	<path style="fill:#8EDB5A;" d="M287.8,378.8c-8.399,8.399-19.799,13.2-31.8,13.2s-23.401-4.801-31.8-13.2c-6-6-6-15.3,0-21.301   c6-5.7,15.3-5.7,21.301,0c2.699,2.701,6.599,4.2,10.499,4.2s7.8-1.5,10.499-4.2c6-5.7,15.3-5.7,21.301,0   C293.8,363.5,293.8,372.8,287.8,378.8z"/>
	<path style="fill:#EDF5FF;" d="M271,196c0,8.399-6.599,15-15,15s-15-6.601-15-15c0-8.401,6.599-15,15-15S271,187.599,271,196z"/>
	<path style="fill:#D7E9FF;" d="M256,211v-30c8.401,0,15,6.599,15,15C271,204.399,264.401,211,256,211z"/>
	<path style="fill:#5CC178;" d="M287.8,378.8c-8.399,8.399-19.799,13.2-31.8,13.2v-30.3c3.9,0,7.8-1.5,10.499-4.2   c6-5.7,15.3-5.7,21.301,0C293.8,363.5,293.8,372.8,287.8,378.8z"/>
	<path style="fill:#5CC178;" d="M330.099,421.099C310.3,441.2,283.9,452,256,452v-30.601c19.501,0,39-7.2,53.101-21.301   c5.7-5.999,15.3-5.999,20.999,0C336.099,405.799,336.099,415.399,330.099,421.099z"/>
	<path style="fill:#5CC178;" d="M372.7,463.7C341.499,494.9,300.099,512,256,512v-30c36,0,69.901-14.101,95.4-39.6   c6-6,15.3-6,21.301,0C378.401,448.4,378.401,457.7,372.7,463.7z"/>
	<path style="fill:#697C86;" d="M497,0H15C6.599,0,0,6.599,0,15v31c0,24.899,20.099,45,45,45h422c24.901,0,45-20.101,45-45V15   C512,6.599,505.401,0,497,0z"/>
	<path style="fill:#596C76;" d="M512,15v31c0,24.899-20.099,45-45,45H256V0h241C505.401,0,512,6.599,512,15z"/>
</g>















</svg>
