<?xml version="1.0"?>
<svg xmlns="http://www.w3.org/2000/svg" height="512px" version="1.1" viewBox="-2 0 216 216.456" width="512px" class=""><g><g id="surface1">
<path d="M 202.058594 148.71875 L 10.847656 148.71875 C 6.941406 148.734375 3.777344 151.894531 3.765625 155.800781 L 3.765625 191.210938 C 3.777344 195.121094 6.941406 198.28125 10.847656 198.292969 L 202.058594 198.292969 C 205.96875 198.28125 209.128906 195.121094 209.140625 191.210938 L 209.140625 155.800781 C 209.128906 151.898438 205.96875 148.734375 202.058594 148.71875 Z M 117.078125 184.128906 L 17.929688 184.128906 L 17.929688 162.882812 L 117.078125 162.882812 Z M 191.4375 173.507812 C 187.523438 173.507812 184.355469 170.335938 184.355469 166.425781 C 184.355469 162.515625 187.523438 159.34375 191.4375 159.34375 C 195.347656 159.34375 198.519531 162.515625 198.519531 166.425781 C 198.507812 170.332031 195.34375 173.496094 191.4375 173.507812 Z M 191.4375 173.507812 " style="fill:#6D6464" data-original="#ACABB1" class="" data-old_color="#6C6363"/>
<path d="M 198.519531 166.425781 C 198.519531 170.335938 195.347656 173.507812 191.4375 173.507812 C 187.527344 173.507812 184.355469 170.335938 184.355469 166.425781 C 184.355469 162.515625 187.527344 159.34375 191.4375 159.34375 C 195.347656 159.34375 198.519531 162.515625 198.519531 166.425781 Z M 198.519531 166.425781 " style="fill:#C9FF00" data-original="#FF5023" class="" data-old_color="#FF5023"/>
<path d="M 17.929688 162.882812 L 117.078125 162.882812 L 117.078125 184.128906 L 17.929688 184.128906 Z M 17.929688 162.882812 " style="fill:#ECECEC" data-original="#00D7DF" class="active-path" data-old_color="#ececec"/>
<path d="M 28.550781 212.457031 L 42.714844 212.457031 L 46.257812 198.292969 L 25.011719 198.292969 Z M 28.550781 212.457031 " style="fill:#6D6464" data-original="#ACABB1" class="" data-old_color="#6C6363"/>
<path d="M 170.191406 212.457031 L 184.355469 212.457031 L 187.894531 198.292969 L 166.648438 198.292969 Z M 170.191406 212.457031 " style="fill:#6D6464" data-original="#ACABB1" class="" data-old_color="#6C6363"/>
<path d="M 202.058594 3.539062 L 10.847656 3.539062 C 6.9375 3.539062 3.765625 6.710938 3.765625 10.621094 L 3.765625 116.851562 C 3.765625 120.765625 6.9375 123.933594 10.847656 123.933594 L 202.058594 123.933594 C 205.972656 123.933594 209.140625 120.765625 209.140625 116.851562 L 209.140625 10.621094 C 209.140625 6.710938 205.972656 3.539062 202.058594 3.539062 Z M 198.519531 63.738281 L 198.519531 113.3125 L 14.386719 113.3125 L 14.386719 14.164062 L 198.519531 14.164062 Z M 198.519531 63.738281 " style="fill:#6D6464" data-original="#ACABB1" class="" data-old_color="#6C6363"/>
<path d="M 14.386719 14.164062 L 106.453125 14.164062 L 106.453125 63.738281 L 14.386719 63.738281 Z M 14.386719 14.164062 " style="fill:#ECECEC" data-original="#00D7DF" class="active-path" data-old_color="#ececec"/>
<path d="M 106.453125 63.738281 L 198.519531 63.738281 L 198.519531 113.3125 L 106.453125 113.3125 Z M 106.453125 63.738281 " style="fill:#C9FF00" data-original="#FF5023" class="" data-old_color="#FF5023"/>
<path d="M 106.453125 14.164062 L 198.519531 14.164062 L 198.519531 63.738281 L 106.453125 63.738281 Z M 106.453125 14.164062 " style="fill:#ECECEC" data-original="#00D7DF" class="active-path" data-old_color="#ececec"/>
<path d="M 14.386719 63.738281 L 106.453125 63.738281 L 106.453125 113.3125 L 14.386719 113.3125 Z M 14.386719 63.738281 " style="fill:#ECECEC" data-original="#00D7DF" class="active-path" data-old_color="#ececec"/>
<path d="M 95.832031 123.933594 L 117.078125 123.933594 L 117.078125 148.71875 L 95.832031 148.71875 Z M 95.832031 123.933594 " style="fill:#6D6464" data-original="#ACABB1" class="" data-old_color="#6C6363"/>
<path d="M 191.4375 177.046875 C 197.304688 177.046875 202.058594 172.292969 202.058594 166.425781 C 202.058594 160.558594 197.304688 155.804688 191.4375 155.804688 C 185.570312 155.804688 180.8125 160.558594 180.8125 166.425781 C 180.8125 172.292969 185.570312 177.046875 191.4375 177.046875 Z M 191.4375 162.882812 C 193.394531 162.882812 194.976562 164.46875 194.976562 166.425781 C 194.976562 168.378906 193.390625 169.964844 191.4375 169.964844 C 189.480469 169.964844 187.894531 168.378906 187.894531 166.425781 C 187.894531 164.46875 189.480469 162.882812 191.4375 162.882812 Z M 191.4375 162.882812 " style="fill:#4E4E4E" data-original="#231F20" class="" data-old_color="#4e4e4e"/>
<path d="M 17.929688 159.34375 C 15.972656 159.34375 14.390625 160.929688 14.390625 162.882812 L 14.390625 184.128906 C 14.390625 186.085938 15.976562 187.671875 17.929688 187.671875 L 117.078125 187.671875 C 119.035156 187.671875 120.617188 186.085938 120.617188 184.128906 L 120.617188 162.882812 C 120.617188 160.929688 119.03125 159.34375 117.078125 159.34375 Z M 113.535156 180.589844 L 21.46875 180.589844 L 21.46875 166.425781 L 113.535156 166.425781 Z M 113.535156 180.589844 " style="fill:#4E4E4E" data-original="#231F20" class="" data-old_color="#4e4e4e"/>
<path d="M 141.863281 159.34375 L 148.945312 159.34375 L 148.945312 166.425781 L 141.863281 166.425781 Z M 141.863281 159.34375 " style="fill:#4E4E4E" data-original="#231F20" class="" data-old_color="#4e4e4e"/>
<path d="M 156.027344 159.34375 L 163.109375 159.34375 L 163.109375 166.425781 L 156.027344 166.425781 Z M 156.027344 159.34375 " style="fill:#4E4E4E" data-original="#231F20" class="" data-old_color="#4e4e4e"/>
<path d="M 141.863281 180.589844 L 148.945312 180.589844 L 148.945312 187.671875 L 141.863281 187.671875 Z M 141.863281 180.589844 " style="fill:#4E4E4E" data-original="#231F20" class="" data-old_color="#4e4e4e"/>
<path d="M 156.027344 180.589844 L 163.109375 180.589844 L 163.109375 187.671875 L 156.027344 187.671875 Z M 156.027344 180.589844 " style="fill:#4E4E4E" data-original="#231F20" class="" data-old_color="#4e4e4e"/>
<path d="M 202.058594 127.476562 C 207.925781 127.476562 212.683594 122.71875 212.683594 116.851562 L 212.683594 10.621094 C 212.683594 4.757812 207.925781 0 202.058594 0 L 10.847656 0 C 4.980469 0 0.222656 4.757812 0.222656 10.621094 L 0.222656 116.851562 C 0.222656 122.71875 4.980469 127.476562 10.847656 127.476562 L 92.289062 127.476562 L 92.289062 145.179688 L 10.847656 145.179688 C 4.980469 145.179688 0.226562 149.933594 0.226562 155.800781 L 0.226562 191.210938 C 0.226562 197.078125 4.980469 201.835938 10.847656 201.835938 L 22.246094 201.835938 L 25.117188 213.3125 C 25.511719 214.890625 26.925781 215.996094 28.554688 215.996094 L 42.71875 215.996094 C 44.34375 215.996094 45.757812 214.890625 46.152344 213.3125 L 49.023438 201.835938 L 163.886719 201.835938 L 166.757812 213.3125 C 167.152344 214.890625 168.566406 215.996094 170.191406 215.996094 L 184.355469 215.996094 C 185.980469 215.996094 187.398438 214.890625 187.792969 213.3125 L 190.664062 201.835938 L 202.0625 201.835938 C 207.929688 201.835938 212.683594 197.078125 212.683594 191.210938 L 212.683594 155.800781 C 212.683594 149.933594 207.929688 145.179688 202.0625 145.179688 L 120.621094 145.179688 L 120.621094 127.476562 Z M 7.304688 116.851562 L 7.304688 10.621094 C 7.304688 8.667969 8.890625 7.082031 10.847656 7.082031 L 202.058594 7.082031 C 204.015625 7.082031 205.601562 8.667969 205.601562 10.621094 L 205.601562 116.851562 C 205.601562 118.808594 204.015625 120.394531 202.058594 120.394531 L 10.847656 120.394531 C 8.890625 120.394531 7.304688 118.808594 7.304688 116.851562 Z M 39.949219 208.917969 L 31.316406 208.917969 L 29.546875 201.835938 L 41.722656 201.835938 Z M 181.589844 208.917969 L 172.957031 208.917969 L 171.1875 201.835938 L 183.359375 201.835938 Z M 205.601562 155.800781 L 205.601562 191.210938 C 205.601562 193.167969 204.015625 194.753906 202.058594 194.753906 L 10.847656 194.753906 C 8.890625 194.753906 7.308594 193.167969 7.308594 191.210938 L 7.308594 155.800781 C 7.308594 153.847656 8.894531 152.261719 10.847656 152.261719 L 202.058594 152.261719 C 204.015625 152.261719 205.601562 153.847656 205.601562 155.800781 Z M 113.535156 145.179688 L 99.371094 145.179688 L 99.371094 127.476562 L 113.535156 127.476562 Z M 113.535156 145.179688 " style="fill:#4E4E4E" data-original="#231F20" class="" data-old_color="#4e4e4e"/>
<path d="M 202.058594 113.3125 L 202.058594 14.164062 C 202.058594 12.207031 200.476562 10.625 198.519531 10.625 L 14.386719 10.625 C 12.433594 10.625 10.847656 12.210938 10.847656 14.164062 L 10.847656 113.3125 C 10.847656 115.269531 12.433594 116.851562 14.386719 116.851562 L 198.519531 116.851562 C 200.476562 116.851562 202.058594 115.265625 202.058594 113.3125 Z M 194.976562 60.195312 L 109.996094 60.195312 L 109.996094 17.703125 L 194.976562 17.703125 Z M 102.914062 17.703125 L 102.914062 60.195312 L 17.929688 60.195312 L 17.929688 17.703125 Z M 17.929688 67.277344 L 102.914062 67.277344 L 102.914062 109.769531 L 17.929688 109.769531 Z M 109.996094 109.769531 L 109.996094 67.277344 L 194.976562 67.277344 L 194.976562 109.769531 Z M 109.996094 109.769531 " style="fill:#4E4E4E" data-original="#231F20" class="" data-old_color="#4e4e4e"/>
</g></g> </svg>
